<svg xmlns="http://www.w3.org/2000/svg" width="900" height="520" viewBox="0 0 900 520" role="img" aria-label="VLIW SIMD reduced architecture diagram">
  <rect x="0" y="0" width="900" height="520" fill="#111827"/>

  <defs>
    <style>
      .box { fill: #1f2937; stroke: #9ca3af; stroke-width: 1.2; }
      .group { fill: #0f172a; stroke: #6b7280; stroke-width: 1.2; }
      .title { font: 14px sans-serif; fill: #f9fafb; font-weight: 600; }
      .label { font: 12px sans-serif; fill: #e5e7eb; }
      .arrow { stroke: #e5e7eb; stroke-width: 1.2; marker-end: url(#arrow); }
    </style>
    <marker id="arrow" markerWidth="10" markerHeight="10" refX="8" refY="3" orient="auto" markerUnits="strokeWidth">
      <path d="M0,0 L8,3 L0,6 Z" fill="#e5e7eb"/>
    </marker>
  </defs>

  <!-- Fetch/Decode -->
  <rect class="box" x="350" y="25" width="200" height="50"/>
  <text class="title" x="450" y="55" text-anchor="middle">Fetch + Decode</text>

  <!-- Bundle Issue Group -->
  <rect class="group" x="110" y="95" width="680" height="140" rx="6"/>
  <text class="title" x="450" y="120" text-anchor="middle">Bundle Issue per Cycle</text>

  <rect class="box" x="140" y="140" width="120" height="38"/>
  <text class="label" x="200" y="164" text-anchor="middle">Scalar ALU 0</text>

  <rect class="box" x="270" y="140" width="120" height="38"/>
  <text class="label" x="330" y="164" text-anchor="middle">Scalar ALU 1</text>

  <rect class="box" x="400" y="140" width="120" height="38"/>
  <text class="label" x="460" y="164" text-anchor="middle">Vector ALU 0</text>

  <rect class="box" x="530" y="140" width="120" height="38"/>
  <text class="label" x="590" y="164" text-anchor="middle">Vector ALU 1</text>

  <rect class="box" x="210" y="185" width="120" height="36"/>
  <text class="label" x="270" y="208" text-anchor="middle">Load x1</text>

  <rect class="box" x="360" y="185" width="120" height="36"/>
  <text class="label" x="420" y="208" text-anchor="middle">Store x1</text>

  <rect class="box" x="510" y="185" width="120" height="36"/>
  <text class="label" x="570" y="208" text-anchor="middle">Flow x1</text>

  <!-- Register files and memory -->
  <rect class="box" x="120" y="270" width="200" height="48"/>
  <text class="label" x="220" y="300" text-anchor="middle">Scalar Register File</text>

  <rect class="box" x="350" y="270" width="200" height="48"/>
  <text class="label" x="450" y="300" text-anchor="middle">Vector Register File</text>

  <rect class="box" x="600" y="270" width="220" height="48"/>
  <text class="label" x="710" y="300" text-anchor="middle">Data Memory / Scratchpad</text>

  <!-- Program Counter -->
  <rect class="box" x="360" y="360" width="180" height="44"/>
  <text class="label" x="450" y="388" text-anchor="middle">Program Counter</text>

  <!-- Arrows (clean, non-overlapping) -->
  <line class="arrow" x1="450" y1="75" x2="450" y2="95"/>

  <line class="arrow" x1="200" y1="178" x2="200" y2="270"/>
  <line class="arrow" x1="460" y1="178" x2="450" y2="270"/>

  <line class="arrow" x1="270" y1="221" x2="710" y2="270"/>
  <line class="arrow" x1="420" y1="221" x2="710" y2="270"/>

  <line class="arrow" x1="570" y1="221" x2="450" y2="360"/>
  <line class="arrow" x1="450" y1="404" x2="450" y2="75"/>
</svg>
